<svg xmlns="http://www.w3.org/2000/svg" xmlns:xlink="http://www.w3.org/1999/xlink" width="138" height="138" viewBox="0 0 138 138">
  <defs>
    <filter id="Ellipse_154" x="0" y="0" width="138" height="138" filterUnits="userSpaceOnUse">
      <feOffset dx="3" input="SourceAlpha"/>
      <feGaussianBlur stdDeviation="3" result="blur"/>
      <feFlood flood-opacity="0.161"/>
      <feComposite operator="in" in2="blur"/>
      <feComposite in="SourceGraphic"/>
    </filter>
    <clipPath id="clip-path">
      <path id="Path_95483" data-name="Path 95483" d="M378.476,309.881a52.74,52.74,0,1,0,52.739-52.739,52.74,52.74,0,0,0-52.739,52.739" transform="translate(-378.476 -257.142)" fill="#e0e0e0"/>
    </clipPath>
  </defs>
  <g id="Group_10069" data-name="Group 10069" transform="translate(-515 -1508)">
    <g id="Group_10004" data-name="Group 10004" transform="translate(0 -1)">
      <g transform="matrix(1, 0, 0, 1, 515, 1509)" filter="url(#Ellipse_154)">
        <circle id="Ellipse_154-2" data-name="Ellipse 154" cx="60" cy="60" r="60" transform="translate(6 9)" fill="#fff"/>
      </g>
      <g id="Group_9910" data-name="Group 9910" transform="translate(-133 -22)">
        <path id="Path_95477" data-name="Path 95477" d="M483.956,309.882a52.74,52.74,0,1,1-52.742-52.74,52.742,52.742,0,0,1,52.742,52.74" transform="translate(282.345 1290.137)" fill="#eb484d"/>
        <g id="Group_9893" data-name="Group 9893" transform="translate(660.821 1547.279)" clip-path="url(#clip-path)">
          <path id="Path_95478" data-name="Path 95478" d="M456.607,296.21a31.315,31.315,0,1,1-31.314-31.317,31.314,31.314,0,0,1,31.314,31.317" transform="translate(-370.904 -253.356)" fill="#e0e0e0"/>
          <rect id="Rectangle_18017" data-name="Rectangle 18017" width="16.48" height="24.722" transform="translate(23.074 42.851)" fill="#e0e0e0"/>
          <path id="Path_95479" data-name="Path 95479" d="M399.979,309.571H388.442l8.24-21.426Z" transform="translate(-373.608 -241.999)" fill="#e0e0e0"/>
          <path id="Path_95480" data-name="Path 95480" d="M436,321.753H395.626l-1.648-18.131,46.148-3.3Z" transform="translate(-370.904 -236.05)" fill="#e0e0e0"/>
          <path id="Path_95481" data-name="Path 95481" d="M445.159,338.258,405.6,348.148V317.657l33.786-14.009Z" transform="translate(-365.226 -234.427)" fill="#e0e0e0"/>
          <path id="Path_95482" data-name="Path 95482" d="M420.552,319.8l12.362-4.976,9.066-22.251-21.428,3.3Z" transform="translate(-357.924 -239.835)" fill="#e0e0e0"/>
        </g>
      </g>
    </g>
    <g id="noun-gears-683134" transform="translate(-1508.531 133.259)">
      <path id="Path_96247" data-name="Path 96247" d="M80.874,23.743a1.373,1.373,0,0,1-1.132-1.352v-1.51a1.374,1.374,0,0,1,1.132-1.352l1.783-.311h0A9.244,9.244,0,0,1,83.583,17l-1.045-1.485a1.373,1.373,0,0,1,.153-1.758l1.07-1.07a1.368,1.368,0,0,1,1.754-.153L87,13.582a9.23,9.23,0,0,1,2.219-.921l.311-1.783a1.373,1.373,0,0,1,1.352-1.137H92.4a1.373,1.373,0,0,1,1.348,1.132l.311,1.783h0a9.22,9.22,0,0,1,2.223.925l1.481-1.041h0a1.369,1.369,0,0,1,1.754.154l1.074,1.066a1.373,1.373,0,0,1,.154,1.759L99.7,17h0a9.241,9.241,0,0,1,.742,1.692,4.179,4.179,0,0,0-.862,1.891l-.145.829-.444.183-.684-.477h0a4.171,4.171,0,0,0-2.41-.759c-.137,0-.266.025-.415.037h0a4.069,4.069,0,1,0-5.11,5.1,4.185,4.185,0,0,0,.738,2.812l.481.684c-.062.145-.124.295-.183.444l-.829.145a4.18,4.18,0,0,0-1.891.863A9.294,9.294,0,0,1,87,29.7l-1.485,1.041a1.368,1.368,0,0,1-1.75-.158l-1.07-1.07a1.373,1.373,0,0,1-.153-1.759l1.045-1.481a9.22,9.22,0,0,1-.921-2.219Zm38.9,9.954v1.92h0a1.743,1.743,0,0,1-1.439,1.713l-2.26.415h0a11.728,11.728,0,0,1-1.17,2.8l1.319,1.883h0a1.742,1.742,0,0,1-.195,2.265l-1.339,1.339a1.742,1.742,0,0,1-2.231.195L110.541,44.9a11.75,11.75,0,0,1-2.82,1.17l-.415,2.26h0a1.743,1.743,0,0,1-1.713,1.439H103.71A1.743,1.743,0,0,1,102,48.334l-.415-2.26h0a11.717,11.717,0,0,1-2.816-1.17L96.9,46.223a1.742,1.742,0,0,1-2.231-.195l-1.356-1.339a1.742,1.742,0,0,1-.191-2.248l1.319-1.9a11.746,11.746,0,0,1-1.17-2.816l-2.26-.415h0A1.742,1.742,0,0,1,89.571,35.6V33.71A1.742,1.742,0,0,1,91.006,32l2.26-.415h0a11.725,11.725,0,0,1,1.17-2.82L93.122,26.9a1.742,1.742,0,0,1,.195-2.231l1.356-1.356a1.742,1.742,0,0,1,2.227-.191l1.883,1.319a11.72,11.72,0,0,1,2.816-1.17l.415-2.26a1.742,1.742,0,0,1,1.713-1.439h1.92a1.742,1.742,0,0,1,1.7,1.435l.415,2.26h0a11.723,11.723,0,0,1,2.779,1.174l1.9-1.319a1.742,1.742,0,0,1,2.231.195l1.356,1.356a1.742,1.742,0,0,1,.195,2.231L114.9,28.787h0a11.727,11.727,0,0,1,1.17,2.82l2.26.415h0a1.743,1.743,0,0,1,1.439,1.688Zm-9.921.975a5.181,5.181,0,1,0-1.517,3.663A5.18,5.18,0,0,0,109.852,34.672Z" transform="translate(1991 1405)" fill="#00008c"/>
    </g>
  </g>
</svg>
