<svg xmlns="http://www.w3.org/2000/svg" xmlns:xlink="http://www.w3.org/1999/xlink" width="138" height="138" viewBox="0 0 138 138">
  <defs>
    <filter id="Ellipse_154" x="0" y="0" width="138" height="138" filterUnits="userSpaceOnUse">
      <feOffset dx="3" input="SourceAlpha"/>
      <feGaussianBlur stdDeviation="3" result="blur"/>
      <feFlood flood-opacity="0.161"/>
      <feComposite operator="in" in2="blur"/>
      <feComposite in="SourceGraphic"/>
    </filter>
    <clipPath id="clip-path">
      <path id="Path_95567" data-name="Path 95567" d="M88.143,609.321a50.884,50.884,0,1,0,50.884-50.883,50.883,50.883,0,0,0-50.884,50.883" transform="translate(-88.143 -558.438)" fill="#e0e0e0"/>
    </clipPath>
  </defs>
  <g id="Group_10005" data-name="Group 10005" transform="translate(-1064 -1490)">
    <g transform="matrix(1, 0, 0, 1, 1064, 1490)" filter="url(#Ellipse_154)">
      <circle id="Ellipse_154-2" data-name="Ellipse 154" cx="60" cy="60" r="60" transform="translate(6 9)" fill="#fff"/>
    </g>
    <path id="Path_95561" data-name="Path 95561" d="M189.912,609.322a50.884,50.884,0,1,1-50.886-50.884,50.885,50.885,0,0,1,50.886,50.884" transform="translate(991.646 949.109)" fill="#eb484d"/>
    <g id="Group_9905" data-name="Group 9905" transform="translate(1079.788 1507.547)">
      <g id="Group_9905-2" data-name="Group 9905" transform="translate(0 0)" clip-path="url(#clip-path)">
        <path id="Path_95562" data-name="Path 95562" d="M164.07,596.4a30.212,30.212,0,1,1-30.211-30.213A30.21,30.21,0,0,1,164.07,596.4" transform="translate(-81.383 -555.058)" fill="#e0e0e0"/>
        <rect id="Rectangle_18047" data-name="Rectangle 18047" width="15.9" height="23.852" transform="translate(22.264 41.343)" fill="#e0e0e0"/>
        <path id="Path_95563" data-name="Path 95563" d="M109.24,610.114H98.109l7.951-20.672Z" transform="translate(-83.797 -544.918)" fill="#e0e0e0"/>
        <path id="Path_95564" data-name="Path 95564" d="M144.194,622.293H105.236l-1.59-17.491,44.524-3.181Z" transform="translate(-81.383 -539.607)" fill="#e0e0e0"/>
        <path id="Path_95565" data-name="Path 95565" d="M153.435,638.337l-38.163,9.541V618.459l32.6-13.515Z" transform="translate(-76.313 -538.158)" fill="#e0e0e0"/>
        <path id="Path_95566" data-name="Path 95566" d="M130.22,620.139l11.927-4.8,8.747-21.466-20.674,3.181Z" transform="translate(-69.795 -542.987)" fill="#e0e0e0"/>
      </g>
    </g>
    <path id="Path_95563-2" data-name="Path 95563" d="M139.8,591.672c-1.59-11.131-11.131-18.285-17.493-18.285,4.772,3.178,4.772,8.744,2.385,12.719a8.389,8.389,0,0,0-6.359-2.384c2.385,1.59,1.715,5.313.794,7.154-1.1,2.2-2.385,4.505-2.385,7.156,0,5.566,3.976,10.337,9.541,10.337h2.385c11.131,0,12.053-10.254,11.131-16.7" transform="translate(1004.118 955.628)" fill="#ffa433"/>
    <path id="Path_95564-2" data-name="Path 95564" d="M132.019,590.024A6.366,6.366,0,0,0,128.3,592.3c-1.053-1.479-1.848-6.251,1.333-7.84-3.976,0-8.747,3.975-9.541,9.54-.47,3.287.794,9.541,6.36,9.541.194.022.6,0,.8,0a5.512,5.512,0,0,0,5.565-5.566c0-3.679-2.384-6.359-.8-7.95" transform="translate(1005.539 960.456)" fill="#ffce65"/>
    <rect id="Rectangle_18047-2" data-name="Rectangle 18047" width="22.262" height="3.181" transform="translate(1121.133 1564.791)" fill="#313b45"/>
    <path id="Path_95565-2" data-name="Path 95565" d="M136.014,596.086h-15.9l-3.181,3.179h22.262Z" transform="translate(1004.2 965.526)" fill="#222e37"/>
    <path id="Path_95566-2" data-name="Path 95566" d="M118.04,602.729c3.976,4.769,5.565,11.315,5.565,19.081v15.107l2.385,3.974h3.181l2.385-3.974V621.81c0-7.766,1.591-14.312,5.565-19.081Z" transform="translate(1004.682 968.423)" fill="#313b45"/>
    <rect id="Rectangle_18048" data-name="Rectangle 18048" width="19.081" height="3.181" transform="translate(1122.723 1567.971)" fill="#222e37"/>
  </g>
</svg>
