<svg xmlns="http://www.w3.org/2000/svg" xmlns:xlink="http://www.w3.org/1999/xlink" width="138" height="138" viewBox="0 0 138 138">
  <defs>
    <filter id="Ellipse_156" x="0" y="0" width="138" height="138" filterUnits="userSpaceOnUse">
      <feOffset dx="3" input="SourceAlpha"/>
      <feGaussianBlur stdDeviation="3" result="blur"/>
      <feFlood flood-opacity="0.161"/>
      <feComposite operator="in" in2="blur"/>
      <feComposite in="SourceGraphic"/>
    </filter>
    <clipPath id="clip-path">
      <path id="Path_95483" data-name="Path 95483" d="M378.476,309.881a52.74,52.74,0,1,0,52.739-52.739,52.74,52.74,0,0,0-52.739,52.739" transform="translate(-378.476 -257.142)" fill="#e0e0e0"/>
    </clipPath>
  </defs>
  <g id="Group_10049" data-name="Group 10049" transform="translate(-743 -1703)">
    <g id="Group_10007" data-name="Group 10007" transform="translate(-120 -30)">
      <g transform="matrix(1, 0, 0, 1, 863, 1733)" filter="url(#Ellipse_156)">
        <circle id="Ellipse_156-2" data-name="Ellipse 156" cx="60" cy="60" r="60" transform="translate(6 9)" fill="#fff"/>
      </g>
      <g id="Group_10019" data-name="Group 10019" transform="translate(214.439 201.98)">
        <path id="Path_95477" data-name="Path 95477" d="M483.956,309.882a52.74,52.74,0,1,1-52.742-52.74,52.742,52.742,0,0,1,52.742,52.74" transform="translate(282.345 1290.137)" fill="#eb484d"/>
        <g id="Group_9893" data-name="Group 9893" transform="translate(660.821 1547.279)" clip-path="url(#clip-path)">
          <path id="Path_95478" data-name="Path 95478" d="M456.607,296.21a31.315,31.315,0,1,1-31.314-31.317,31.314,31.314,0,0,1,31.314,31.317" transform="translate(-370.904 -253.356)" fill="#e0e0e0"/>
          <rect id="Rectangle_18017" data-name="Rectangle 18017" width="16.48" height="24.722" transform="translate(23.074 42.851)" fill="#e0e0e0"/>
          <path id="Path_95479" data-name="Path 95479" d="M399.979,309.571H388.442l8.24-21.426Z" transform="translate(-373.608 -241.999)" fill="#e0e0e0"/>
          <path id="Path_95480" data-name="Path 95480" d="M436,321.753H395.626l-1.648-18.131,46.148-3.3Z" transform="translate(-370.904 -236.05)" fill="#e0e0e0"/>
          <path id="Path_95481" data-name="Path 95481" d="M445.159,338.258,405.6,348.148V317.657l33.786-14.009Z" transform="translate(-365.226 -234.427)" fill="#e0e0e0"/>
          <path id="Path_95482" data-name="Path 95482" d="M420.552,319.8l12.362-4.976,9.066-22.251-21.428,3.3Z" transform="translate(-357.924 -239.835)" fill="#e0e0e0"/>
        </g>
      </g>
    </g>
    <g id="noun-chat-677880" transform="translate(672.469 1685.324)">
      <path id="Path_96249" data-name="Path 96249" d="M138.883,61.6c-10.21,0-18.483,6.749-18.483,15.073,0,4.826,2.886,8.765,7.213,11.523l-3.606,8.565,9.917-5.409a31.564,31.564,0,0,0,4.959.38c10.21,0,18.483-6.735,18.483-15.059S149.093,61.6,138.883,61.6Zm-10.368,8.565h20.737a.9.9,0,0,1,0,1.8H128.514a.9.9,0,0,1,0-1.8Zm0,5.409h20.737a.9.9,0,0,1,0,1.8H128.514a.9.9,0,0,1,0-1.8Zm0,5.409h18.032a.9.9,0,1,1,0,1.8H128.514a.9.9,0,0,1,0-1.8Z" fill="#5172fc"/>
    </g>
  </g>
</svg>
