<?xml version="1.0" encoding="utf-8"?>
<!-- Generator: Adobe Illustrator 16.0.0, SVG Export Plug-In . SVG Version: 6.00 Build 0)  -->
<!DOCTYPE svg PUBLIC "-//W3C//DTD SVG 1.1//EN" "http://www.w3.org/Graphics/SVG/1.1/DTD/svg11.dtd">
<svg version="1.1" id="Layer_1" xmlns="http://www.w3.org/2000/svg" xmlns:xlink="http://www.w3.org/1999/xlink" x="0px" y="0px"
	 width="35px" height="35px" viewBox="0 0 35 35" enable-background="new 0 0 35 35" xml:space="preserve">
<path id="Path_96253" d="M14.761,19.872l-11.81,8.5c0.143,0.048,0.292,0.072,0.443,0.071h28.59c0.15,0.001,0.3-0.023,0.443-0.071
	l-11.811-8.5l-1.419,1.219c-0.878,0.729-2.149,0.729-3.026,0L14.761,19.872z M13.675,18.936L2.027,27.322
	c-0.018-0.09-0.028-0.18-0.029-0.271V8.926c0-0.016,0-0.031,0-0.048L13.675,18.936z M2.754,7.686
	c0.198-0.104,0.417-0.156,0.64-0.156h28.59c0.223-0.001,0.443,0.053,0.641,0.156l-14.333,12.35c-0.354,0.277-0.851,0.277-1.205,0
	L2.754,7.686z M33.378,8.877c0,0.016,0,0.032,0,0.048v18.126c0.001,0.092-0.009,0.183-0.026,0.271l-11.647-8.387L33.378,8.877z"/>
</svg>
