<?xml version="1.0" encoding="utf-8"?>
<!-- Generator: Adobe Illustrator 16.0.0, SVG Export Plug-In . SVG Version: 6.00 Build 0)  -->
<!DOCTYPE svg PUBLIC "-//W3C//DTD SVG 1.1//EN" "http://www.w3.org/Graphics/SVG/1.1/DTD/svg11.dtd">
<svg version="1.1" id="Layer_1" xmlns="http://www.w3.org/2000/svg" xmlns:xlink="http://www.w3.org/1999/xlink" x="0px" y="0px"
	 width="13px" height="32px" viewBox="0 0 13 32" enable-background="new 0 0 13 32" xml:space="preserve">
<path id="Path_96252" d="M10.663,23.625l1.279,4.999c0.187,0.711-0.155,1.459-0.805,1.753c-3.235,1.561-7.072,0.091-8.569-3.283
	c-0.014-0.03-0.027-0.062-0.041-0.093C-0.51,20.053-0.379,12.045,2.885,5.209c1.556-3.344,5.417-4.741,8.625-3.119
	c0.03,0.016,0.061,0.032,0.092,0.047c0.64,0.319,0.959,1.08,0.747,1.786l-1.443,4.949c-0.217,0.764-0.88,1.296-1.645,1.32
	l-3.044,0.133c-1.523,3.717-1.591,7.909-0.19,11.678l3.038,0.24C9.828,22.297,10.472,22.854,10.663,23.625L10.663,23.625z"/>
</svg>
